<svg xmlns="http://www.w3.org/2000/svg" width="277" height="74" viewBox="0 0 277 74">
    <g fill="#FFF" fill-rule="nonzero">
        <path d="M255.262 60.998a151.215 151.215 0 0 1-9.347 3.743l-.68-1.88a149.216 149.216 0 0 0 9.223-3.694l.804 1.831zm-18.95 6.83c-3.278.92-6.546 1.7-9.802 2.34l-.386-1.963c3.204-.63 6.42-1.397 9.648-2.303l.54 1.925zm-19.79 3.865c-3.37.366-6.726.58-10.07.64l-.037-2c3.284-.06 6.58-.269 9.89-.628l.216 1.988zm-20.149.36a108.866 108.866 0 0 1-10.019-1.214l.332-1.972c3.266.55 6.544.947 9.835 1.192l-.148 1.994zM176.441 68.7a116.74 116.74 0 0 1-9.632-2.995l.674-1.883a114.74 114.74 0 0 0 9.468 2.944l-.51 1.934zm-18.926-6.76a135.396 135.396 0 0 1-9.016-4.494l.957-1.756a133.397 133.397 0 0 0 8.883 4.427l-.824 1.823zM.651 13.187a151.215 151.215 0 0 1 9.347-3.743l.68 1.88a149.216 149.216 0 0 0-9.223 3.695l-.804-1.832zm18.95-6.829c3.278-.92 6.546-1.7 9.802-2.34l.386 1.962c-3.204.63-6.42 1.398-9.648 2.304l-.54-1.926zm19.79-3.865c3.37-.366 6.726-.58 10.07-.641l.037 2c-3.284.06-6.58.27-9.89.629l-.216-1.988zm20.149-.36c3.352.248 6.692.653 10.019 1.213l-.332 1.972c-3.266-.55-6.544-.947-9.835-1.191l.148-1.995zm19.932 3.353a116.74 116.74 0 0 1 9.633 2.995l-.675 1.882a114.74 114.74 0 0 0-9.468-2.943l.51-1.934zm18.926 6.76a135.396 135.396 0 0 1 9.016 4.494l-.957 1.756a133.397 133.397 0 0 0-8.883-4.428l.824-1.822zM276.436 18.058c0 8.87-16 33.942-16 33.942s-16-25.073-16-33.942c0-8.868 7.164-16.058 16-16.058 8.837 0 16 7.19 16 16.058zM260.936 27c5.247 0 9.5-4.03 9.5-9s-4.253-9-9.5-9-9.5 4.03-9.5 9 4.253 9 9.5 9zM5.35 24.7h6.9v3.2h.1c.3-.433.692-.875 1.175-1.325a8.89 8.89 0 0 1 1.7-1.225c.65-.367 1.358-.667 2.125-.9a8.372 8.372 0 0 1 2.45-.35c1.8 0 3.433.308 4.9.925a10.926 10.926 0 0 1 3.775 2.6c1.05 1.117 1.858 2.442 2.425 3.975.567 1.533.85 3.217.85 5.05 0 1.7-.258 3.325-.775 4.875-.517 1.55-1.25 2.925-2.2 4.125a10.747 10.747 0 0 1-3.475 2.875c-1.367.717-2.917 1.075-4.65 1.075-1.567 0-3.025-.242-4.375-.725A7.001 7.001 0 0 1 12.95 46.4h-.1v14h-7.5V24.7zm6.9 12.15c0 1.833.525 3.317 1.575 4.45 1.05 1.133 2.525 1.7 4.425 1.7s3.375-.567 4.425-1.7c1.05-1.133 1.575-2.617 1.575-4.45 0-1.833-.525-3.317-1.575-4.45-1.05-1.133-2.525-1.7-4.425-1.7s-3.375.567-4.425 1.7c-1.05 1.133-1.575 2.617-1.575 4.45zm24-25.65h7.5V49h-7.5V11.2zM64.4 45.95h-.1c-.833 1.3-1.942 2.233-3.325 2.8a11.43 11.43 0 0 1-4.375.85 11.28 11.28 0 0 1-3.275-.475A8.265 8.265 0 0 1 50.55 47.7a6.881 6.881 0 0 1-1.9-2.35c-.467-.933-.7-2.017-.7-3.25 0-1.4.258-2.583.775-3.55a6.935 6.935 0 0 1 2.1-2.4 10.428 10.428 0 0 1 3.025-1.475 22.082 22.082 0 0 1 3.525-.775 33.669 33.669 0 0 1 3.65-.3 123.85 123.85 0 0 1 3.375-.05c0-1.333-.475-2.392-1.425-3.175-.95-.783-2.075-1.175-3.375-1.175-1.233 0-2.358.258-3.375.775A9.22 9.22 0 0 0 53.5 32.1l-4-4.1c1.4-1.3 3.033-2.275 4.9-2.925 1.867-.65 3.8-.975 5.8-.975 2.2 0 4.008.275 5.425.825 1.417.55 2.55 1.358 3.4 2.425.85 1.067 1.442 2.375 1.775 3.925.333 1.55.5 3.342.5 5.375V49h-6.9v-3.05zm-1.85-7.6c-.567 0-1.275.025-2.125.075-.85.05-1.667.192-2.45.425-.783.233-1.45.583-2 1.05-.55.467-.825 1.117-.825 1.95 0 .9.383 1.567 1.15 2a4.81 4.81 0 0 0 2.4.65c.733 0 1.442-.1 2.125-.3a6.338 6.338 0 0 0 1.825-.85 4.109 4.109 0 0 0 1.275-1.4c.317-.567.475-1.233.475-2v-1.6h-1.85zm29.9-5.8c-.367-.533-.883-.975-1.55-1.325a4.557 4.557 0 0 0-2.15-.525c-1.9 0-3.375.567-4.425 1.7-1.05 1.133-1.575 2.617-1.575 4.45 0 1.833.525 3.317 1.575 4.45 1.05 1.133 2.525 1.7 4.425 1.7.833 0 1.55-.183 2.15-.55.6-.367 1.117-.8 1.55-1.3l4.95 5.2a9.563 9.563 0 0 1-4.125 2.525c-1.583.483-3.092.725-4.525.725-1.867 0-3.625-.3-5.275-.9-1.65-.6-3.083-1.458-4.3-2.575A12.085 12.085 0 0 1 76.3 42.1c-.7-1.567-1.05-3.317-1.05-5.25 0-1.933.35-3.683 1.05-5.25a12.085 12.085 0 0 1 2.875-4.025c1.217-1.117 2.65-1.975 4.3-2.575 1.65-.6 3.408-.9 5.275-.9 1.433 0 2.942.242 4.525.725A9.563 9.563 0 0 1 97.4 27.35l-4.95 5.2zM123.1 44.8c-1.2 1.533-2.717 2.717-4.55 3.55a13.63 13.63 0 0 1-5.7 1.25c-1.867 0-3.625-.3-5.275-.9-1.65-.6-3.083-1.458-4.3-2.575A12.085 12.085 0 0 1 100.4 42.1c-.7-1.567-1.05-3.317-1.05-5.25 0-1.933.35-3.683 1.05-5.25a12.085 12.085 0 0 1 2.875-4.025c1.217-1.117 2.65-1.975 4.3-2.575 1.65-.6 3.408-.9 5.275-.9 1.733 0 3.308.3 4.725.9a9.838 9.838 0 0 1 3.6 2.575c.983 1.117 1.742 2.458 2.275 4.025.533 1.567.8 3.317.8 5.25v2.35h-17.4c.3 1.433.95 2.575 1.95 3.425 1 .85 2.233 1.275 3.7 1.275 1.233 0 2.275-.275 3.125-.825a8.402 8.402 0 0 0 2.225-2.125l5.25 3.85zm-6.35-10.7c.033-1.267-.383-2.35-1.25-3.25-.867-.9-1.983-1.35-3.35-1.35-.833 0-1.567.133-2.2.4a5.514 5.514 0 0 0-1.625 1.025c-.45.417-.8.9-1.05 1.45a4.774 4.774 0 0 0-.425 1.725h9.9zm28.6-3.4h-6.6v8.1c0 .667.033 1.275.1 1.825s.217 1.025.45 1.425c.233.4.592.708 1.075.925.483.217 1.125.325 1.925.325.4 0 .925-.042 1.575-.125.65-.083 1.142-.275 1.475-.575v6.25c-.833.3-1.7.5-2.6.6-.9.1-1.783.15-2.65.15-1.267 0-2.433-.133-3.5-.4-1.067-.267-2-.692-2.8-1.275a5.972 5.972 0 0 1-1.875-2.275c-.45-.933-.675-2.067-.675-3.4V30.7h-4.8v-6h4.8v-7.2h7.5v7.2h6.6v6zm3.8-6h7.5v3.9h.1c.8-1.5 1.75-2.625 2.85-3.375s2.483-1.125 4.15-1.125c.433 0 .867.017 1.3.05.433.033.833.1 1.2.2v6.85a11.328 11.328 0 0 0-1.575-.375 10.198 10.198 0 0 0-1.625-.125c-1.433 0-2.567.2-3.4.6-.833.4-1.475.958-1.925 1.675-.45.717-.742 1.575-.875 2.575-.133 1-.2 2.1-.2 3.3V49h-7.5V24.7zm35.6 21.25h-.1c-.833 1.3-1.942 2.233-3.325 2.8a11.43 11.43 0 0 1-4.375.85 11.28 11.28 0 0 1-3.275-.475A8.265 8.265 0 0 1 170.9 47.7a6.881 6.881 0 0 1-1.9-2.35c-.467-.933-.7-2.017-.7-3.25 0-1.4.258-2.583.775-3.55a6.935 6.935 0 0 1 2.1-2.4 10.428 10.428 0 0 1 3.025-1.475 22.082 22.082 0 0 1 3.525-.775 33.669 33.669 0 0 1 3.65-.3 123.85 123.85 0 0 1 3.375-.05c0-1.333-.475-2.392-1.425-3.175-.95-.783-2.075-1.175-3.375-1.175-1.233 0-2.358.258-3.375.775a9.22 9.22 0 0 0-2.725 2.125l-4-4.1c1.4-1.3 3.033-2.275 4.9-2.925 1.867-.65 3.8-.975 5.8-.975 2.2 0 4.008.275 5.425.825 1.417.55 2.55 1.358 3.4 2.425.85 1.067 1.442 2.375 1.775 3.925.333 1.55.5 3.342.5 5.375V49h-6.9v-3.05zm-1.85-7.6c-.567 0-1.275.025-2.125.075-.85.05-1.667.192-2.45.425-.783.233-1.45.583-2 1.05-.55.467-.825 1.117-.825 1.95 0 .9.383 1.567 1.15 2a4.81 4.81 0 0 0 2.4.65c.733 0 1.442-.1 2.125-.3a6.338 6.338 0 0 0 1.825-.85 4.109 4.109 0 0 0 1.275-1.4c.317-.567.475-1.233.475-2v-1.6h-1.85zm38.95 22.05h-7.5v-14h-.1a7.001 7.001 0 0 1-3.325 2.475c-1.35.483-2.808.725-4.375.725-1.733 0-3.283-.358-4.65-1.075a10.747 10.747 0 0 1-3.475-2.875c-.95-1.2-1.683-2.575-2.2-4.125a15.314 15.314 0 0 1-.775-4.875c0-1.833.283-3.517.85-5.05s1.375-2.858 2.425-3.975a10.926 10.926 0 0 1 3.775-2.6c1.467-.617 3.1-.925 4.9-.925a8.45 8.45 0 0 1 2.425.35c.783.233 1.5.533 2.15.9a8.89 8.89 0 0 1 1.7 1.225c.483.45.875.892 1.175 1.325h.1v-3.2h6.9v35.7zm-6.9-23.55c0-1.833-.525-3.317-1.575-4.45-1.05-1.133-2.525-1.7-4.425-1.7s-3.375.567-4.425 1.7c-1.05 1.133-1.575 2.617-1.575 4.45 0 1.833.525 3.317 1.575 4.45 1.05 1.133 2.525 1.7 4.425 1.7s3.375-.567 4.425-1.7c1.05-1.133 1.575-2.617 1.575-4.45z"/>
    </g>
</svg>
